<svg xmlns="http://www.w3.org/2000/svg" viewBox="0 0 1440 400" preserveAspectRatio="xMidYMax slice">
  <defs>
    <!-- Distant mountains gradient -->
    <linearGradient id="distant" x1="0%" y1="0%" x2="0%" y2="100%">
      <stop offset="0%" stop-color="#8eb8d9"/>
      <stop offset="100%" stop-color="#b5d4ec"/>
    </linearGradient>
    <!-- Middle mountains gradient -->
    <linearGradient id="mid" x1="0%" y1="0%" x2="0%" y2="100%">
      <stop offset="0%" stop-color="#6a9fc5"/>
      <stop offset="100%" stop-color="#92c1de"/>
    </linearGradient>
    <!-- Front mountains gradient -->
    <linearGradient id="front" x1="0%" y1="0%" x2="0%" y2="100%">
      <stop offset="0%" stop-color="#4a87b5"/>
      <stop offset="100%" stop-color="#78aed0"/>
    </linearGradient>
    <!-- Snow gradient -->
    <linearGradient id="snow" x1="0%" y1="0%" x2="0%" y2="100%">
      <stop offset="0%" stop-color="#ffffff"/>
      <stop offset="100%" stop-color="#e8f2fa"/>
    </linearGradient>
  </defs>

  <!-- Distant range (lightest, furthest back) -->
  <path fill="url(#distant)" d="
    M0,400 L0,220
    C80,200 120,180 180,160
    C240,140 280,150 340,130
    C400,110 440,120 500,100
    C560,80 600,90 660,70
    C720,50 760,60 820,55
    C880,50 920,70 980,60
    C1040,50 1080,65 1140,55
    C1200,45 1240,60 1300,70
    C1360,80 1400,90 1440,100
    L1440,400 Z
  "/>

  <!-- Distant snow caps -->
  <path fill="url(#snow)" opacity="0.8" d="
    M660,70 C640,85 630,105 660,95 C690,85 680,85 660,70 Z
    M820,55 C795,72 785,95 820,82 C855,70 845,68 820,55 Z
    M980,60 C955,78 945,100 980,88 C1015,76 1005,73 980,60 Z
    M1140,55 C1115,73 1105,95 1140,83 C1175,71 1165,68 1140,55 Z
  "/>

  <!-- Middle range -->
  <path fill="url(#mid)" d="
    M0,400 L0,270
    C60,250 100,230 160,210
    C220,190 260,200 320,180
    C380,160 420,170 480,150
    C540,130 580,145 640,125
    C700,105 740,120 800,110
    C860,100 900,115 960,105
    C1020,95 1060,110 1120,100
    C1180,90 1220,105 1280,115
    C1340,125 1380,135 1440,145
    L1440,400 Z
  "/>

  <!-- Middle snow caps -->
  <path fill="url(#snow)" d="
    M480,150 C455,170 442,195 480,178 C518,162 505,165 480,150 Z
    M640,125 C610,148 595,178 640,158 C685,138 665,140 640,125 Z
    M800,110 C768,135 752,168 800,145 C848,122 828,125 800,110 Z
    M960,105 C928,130 912,163 960,140 C1008,117 988,120 960,105 Z
    M1120,100 C1088,125 1072,158 1120,135 C1168,112 1148,115 1120,100 Z
  "/>

  <!-- Front range (darkest, closest) -->
  <path fill="url(#front)" d="
    M0,400 L0,310
    C50,290 90,270 150,250
    C210,230 250,245 310,225
    C370,205 410,220 470,200
    C530,180 570,195 630,175
    C690,155 730,172 790,160
    C850,148 890,165 950,155
    C1010,145 1050,160 1110,150
    C1170,140 1210,155 1270,165
    C1330,175 1370,185 1440,195
    L1440,400 Z
  "/>

  <!-- Front snow caps -->
  <path fill="#ffffff" d="
    M470,200 C438,225 420,260 470,235 C520,210 498,215 470,200 Z
    M630,175 C595,205 575,245 630,215 C685,185 660,190 630,175 Z
    M790,160 C752,192 732,235 790,202 C848,170 822,175 790,160 Z
    M950,155 C912,188 892,232 950,198 C1008,165 982,170 950,155 Z
    M1110,150 C1072,183 1052,227 1110,193 C1168,160 1142,165 1110,150 Z
  "/>

  <!-- Subtle treeline/forest at base -->
  <path fill="#3d7ba3" opacity="0.4" d="
    M0,400 L0,365
    C30,358 50,352 80,358
    C110,364 130,355 160,360
    C190,365 210,357 240,362
    C270,367 290,358 320,363
    C350,368 370,360 400,365
    C430,370 450,362 480,367
    C510,372 530,364 560,369
    C590,374 610,366 640,371
    C670,376 690,368 720,373
    C750,378 770,370 800,375
    C830,380 850,372 880,377
    C910,382 930,374 960,379
    C990,384 1010,376 1040,381
    C1070,386 1090,378 1120,383
    C1150,388 1170,380 1200,385
    C1230,390 1250,382 1280,387
    C1310,392 1330,384 1360,389
    C1390,394 1410,386 1440,391
    L1440,400 Z
  "/>
</svg>
